<?xml version="1.0" encoding="utf-8"?>
<!-- Generator: Adobe Illustrator 24.3.0, SVG Export Plug-In . SVG Version: 6.00 Build 0)  -->
<svg version="1.1" id="Layer_1" xmlns="http://www.w3.org/2000/svg" xmlns:xlink="http://www.w3.org/1999/xlink" x="0px" y="0px"
	 viewBox="0 0 1080 1080" style="enable-background:new 0 0 1080 1080;" xml:space="preserve">
<style type="text/css">
	.st0{fill:#00E131;}
</style>
<g>
	<path d="M900.3,710.1c-97.3,0-176.4-79.1-176.4-176.4c0-97.3,79.1-176.4,176.4-176.4c97.3,0,176.4,79.1,176.4,176.4
		C1076.7,631,997.6,710.1,900.3,710.1z M900.3,369.7c-90.4,0-164,73.6-164,164c0,90.4,73.6,164,164,164c90.4,0,164-73.6,164-164
		C1064.3,443.3,990.7,369.7,900.3,369.7z"/>
</g>
<g>
	<g>
		<path class="st0" d="M186.1,451.2h-80.3c0.7,10.3,4.6,18.5,11.5,24.9c6.9,6.3,15.7,9.5,26.3,9.5c6,0,11.4-1.1,16.4-3.3
			c5-2.2,9.3-5.4,13-9.7l7.3,8.6c-4.3,5.3-9.6,9.3-16,12c-6.4,2.8-13.4,4.1-21.1,4.1c-9.9,0-18.6-2.2-26.2-6.5
			c-7.6-4.3-13.5-10.3-17.8-17.9c-4.3-7.6-6.4-16.3-6.4-25.9c0-9.6,2-18.3,6.1-25.9c4.1-7.6,9.7-13.6,16.8-17.8
			c7.1-4.2,15.1-6.4,24-6.4c8.9,0,16.9,2.1,23.9,6.4c7.1,4.3,12.6,10.2,16.6,17.7c4,7.6,6,16.2,6,26L186.1,451.2z M116.5,417.5
			c-6.3,6.1-9.8,14-10.7,23.7h68.1c-0.9-9.8-4.4-17.7-10.7-23.7c-6.3-6.1-14.1-9.1-23.5-9.1C130.5,408.4,122.7,411.4,116.5,417.5z"
			/>
		<path class="st0" d="M286.8,407.7c7.1,7.2,10.7,17.7,10.7,31.4v57.2h-13v-55.9c0-10.3-2.5-18.1-7.5-23.4c-5-5.4-12.1-8.1-21.4-8.1
			c-10.3,0-18.5,3.2-24.6,9.5c-6,6.3-9,15-9,26.2v51.8h-13v-98.7h12.4v18.2c3.5-6,8.4-10.7,14.7-14c6.3-3.3,13.5-5,21.8-5
			C270.1,397,279.7,400.6,286.8,407.7z"/>
		<path class="st0" d="M413,451.2h-80.3c0.7,10.3,4.6,18.5,11.5,24.9c6.9,6.3,15.7,9.5,26.3,9.5c6,0,11.4-1.1,16.4-3.3
			c5-2.2,9.3-5.4,13-9.7l7.3,8.6c-4.3,5.3-9.6,9.3-16,12c-6.4,2.8-13.4,4.1-21.1,4.1c-9.9,0-18.6-2.2-26.2-6.5
			c-7.6-4.3-13.5-10.3-17.8-17.9c-4.3-7.6-6.4-16.3-6.4-25.9c0-9.6,2-18.3,6.1-25.9c4.1-7.6,9.7-13.6,16.8-17.8
			c7.1-4.2,15.1-6.4,24-6.4c8.9,0,16.9,2.1,23.9,6.4c7.1,4.3,12.6,10.2,16.6,17.7c4,7.6,6,16.2,6,26L413,451.2z M343.4,417.5
			c-6.3,6.1-9.8,14-10.7,23.7h68.1c-0.9-9.8-4.4-17.7-10.7-23.7c-6.3-6.1-14.1-9.1-23.5-9.1C357.4,408.4,349.7,411.4,343.4,417.5z"
			/>
		<path class="st0" d="M462,402c6-3.4,13.5-5.1,22.4-5.1v12.9l-3.1-0.2c-10.1,0-18,3.2-23.7,9.6c-5.7,6.4-8.6,15.3-8.6,26.8v50.3
			h-13v-98.7h12.4V417C451.5,410.4,456,405.4,462,402z"/>
		<path class="st0" d="M595.8,397.7v86.7c0,16.8-4,29.2-12,37.2c-8,8.1-20,12.1-36.1,12.1c-8.9,0-17.3-1.3-25.3-4
			c-8-2.7-14.5-6.4-19.4-11.2l6.6-10.1c4.6,4.2,10.3,7.6,16.9,9.9c6.6,2.4,13.6,3.6,20.9,3.6c12.2,0,21.1-2.9,26.8-8.7
			c5.7-5.8,8.6-14.9,8.6-27.1v-12.6c-4,6.3-9.3,11-15.8,14.3c-6.5,3.3-13.7,4.9-21.6,4.9c-9,0-17.2-2-24.6-6.1
			c-7.4-4.1-13.1-9.8-17.3-17.1s-6.3-15.6-6.3-24.9c0-9.3,2.1-17.5,6.3-24.8c4.2-7.3,9.9-12.9,17.3-16.9c7.3-4,15.5-6,24.6-6
			c8.2,0,15.5,1.7,22.1,5.1c6.6,3.4,11.9,8.3,15.9,14.6v-18.9H595.8z M565.5,476.2c5.6-3.1,9.9-7.3,13.1-12.8
			c3.1-5.5,4.7-11.8,4.7-18.8c0-7-1.6-13.2-4.7-18.7s-7.4-9.7-13-12.8c-5.5-3.1-11.8-4.6-18.9-4.6c-6.9,0-13.2,1.5-18.7,4.5
			c-5.5,3-9.9,7.3-13,12.8c-3.1,5.5-4.7,11.8-4.7,18.8c0,7,1.6,13.3,4.7,18.8c3.1,5.5,7.4,9.8,13,12.8c5.5,3.1,11.8,4.6,18.7,4.6
			C553.6,480.8,559.9,479.3,565.5,476.2z"/>
		<path class="st0" d="M712.8,397.7l-48,110.5c-3.9,9.3-8.4,15.8-13.5,19.7c-5.1,3.9-11.3,5.8-18.4,5.8c-4.6,0-8.9-0.8-13-2.3
			s-7.5-3.8-10.4-6.8l6-9.9c4.9,5,10.7,7.5,17.5,7.5c4.4,0,8.1-1.3,11.2-3.8c3.1-2.5,6-6.8,8.7-12.8l4.2-9.6l-42.9-98.5h13.5
			l36.1,83.9l36.1-83.9H712.8z"/>
	</g>
</g>
<g>
	<g>
		<path d="M117.8,625.9H90.3L90,550h-0.4l-31.2,75.9H30.9l-7.3-104.1h28l0.7,74.8h0.4L82,521.8h26.9l0.2,74.8h0.4l30.9-74.8h27.9
			L117.8,625.9z"/>
		<path d="M228.7,519.1c13,0,23.5,4.1,31.4,12.2c7.9,8.2,11.9,18.4,11.9,30.8c0,18.7-6,34.4-18.1,47.3c-12.1,12.9-27.1,19.3-45,19.3
			c-13,0-23.3-4.1-31.1-12.3c-7.8-8.2-11.7-18.4-11.7-30.5c0-18.4,5.9-34.1,17.8-47.2C195.8,525.7,210.7,519.1,228.7,519.1z
			 M225.5,542.1c-9.4,0-17.1,4.2-23,12.8c-5.9,8.5-8.8,17.9-8.8,28.1c0,6.6,1.7,12,5,16.2c3.3,4.2,8,6.4,14,6.4
			c9,0,16.6-4.1,22.6-12.2c6-8.1,9.1-17.5,9.1-28.1c0-6.8-1.7-12.4-5.2-16.7C235.9,544.3,231.3,542.1,225.5,542.1z"/>
		<path d="M305.1,521.8h25.6l-3.7,18.1h0.4c8.9-13.8,19.2-20.7,31-20.7c2.2,0,4.3,0.1,6.1,0.4l-5.8,27.8c-1.8-0.3-4.2-0.4-7.3-0.4
			c-16.5,0-26.4,8.3-29.8,24.8l-11.2,54.2h-26.7L305.1,521.8z"/>
		<path d="M453.2,625.9h-32l-11.3-31.2l-23.7,31.2h-32.6l45.4-53l-22.5-51.1h31.2l11.4,30.4l22.9-30.4h32.2l-44.2,51.5L453.2,625.9z
			"/>
	</g>
</g>
<g>
	<path class="st0" d="M900.3,700.1c-91.8,0-166.4-74.7-166.4-166.4s74.7-166.4,166.4-166.4s166.4,74.7,166.4,166.4
		S992,700.1,900.3,700.1z M900.3,379.1c-85.3,0-154.7,69.4-154.7,154.7c0,85.3,69.4,154.7,154.7,154.7
		c85.3,0,154.7-69.4,154.7-154.7C1054.9,448.4,985.6,379.1,900.3,379.1z"/>
</g>
<path d="M993.8,578.5c-10.2-10.1-25.2-12.6-37.6-7.4h-0.1l-33.7-33.8c0.2-1.2,0.3-2.4,0.3-3.7c0-4.5-1.3-8.7-3.6-12.2l52.4-57.3
	c0.4-0.5,1-0.8,1.6-0.9l7.7-1.9c0.8-0.2,1.6-0.8,2-1.6l7.6-17.7l-6.1-5.5l-16.9,9.2c-0.8,0.5-1.4,1.3-1.5,2.2l-1.1,7.7
	c-0.1,0.6-0.3,1.2-0.8,1.7l-52.2,57.1c-3.4-2-7.3-3.2-11.5-3.2c-1.3,0-2.5,0.1-3.7,0.3l-33.5-33.5v-0.1c5.3-12.4,2.8-27.4-7.4-37.6
	c-9.8-9.8-24-12.4-36.2-7.9l18.9,18.9c1.7,1.7,1.7,4.4,0,6.2l-14.2,14.2c-1.7,1.7-4.5,1.7-6.2,0l-18.8-18.8
	c-4.4,12.1-1.7,26.2,8,35.8c10.1,10.1,24.8,12.6,37.2,7.5l33.6,33.6c-0.2,1.2-0.3,2.4-0.3,3.6c0,4.9,1.6,9.5,4.3,13.2l-6.1,6.6
	l-5.5-5c-0.3-0.3-0.8-0.4-1.2-0.3l-9.8,2.2c-0.3,0.1-0.6,0.2-0.9,0.5l-57.8,63.5c-0.4,0.4-0.5,0.9-0.4,1.3l0.8,7.4
	c0,0.3,0.1,0.6,0.4,0.9l18.7,17c0.2,0.2,0.6,0.4,0.9,0.4l7.2-0.1c0.4,0,0.9-0.2,1.2-0.6l57.8-63.5c0.2-0.2,0.4-0.6,0.4-0.9l1.6-9.6
	c0.1-0.5-0.1-0.9-0.3-1.2l-5.4-4.9l6.2-6.8c3.1,1.6,6.7,2.6,10.4,2.6c1.2,0,2.5-0.1,3.7-0.3l33.9,33.9c-5.1,12.4-2.6,27.2,7.5,37.2
	c9.8,9.8,24,12.4,36.2,7.9l-18.9-19c-1.7-1.7-1.7-4.5,0-6.2l14.2-14.2c1.7-1.7,4.5-1.7,6.2,0l18.8,18.9
	C1006.3,602.2,1003.5,588.2,993.8,578.5z M855.1,496.1l22.1,22.1c0.2,0.2,0.5,0.4,0.7,0.4c-0.9,0.8-2.2,0.8-3-0.1l-22.5-22.5
	c-0.8-0.8-0.8-2.2,0-3.1l7.4-7.4c0.8-0.8,2.2-0.8,3.1,0l22.5,22.5c0.8,0.8,0.8,2.1,0.1,3c-0.1-0.3-0.2-0.5-0.4-0.7l-22.1-22.1
	c-0.8-0.8-2-0.8-2.7,0l-5.1,5.1C854.4,494.1,854.4,495.3,855.1,496.1z M817.4,629.1c-1.5-1.4-1.6-3.8-0.2-5.3l53.1-58.3
	c1.4-1.6,3.8-1.6,5.3-0.3c0.8,0.8,1.2,1.8,1.2,2.8c0,0.9-0.3,1.8-0.9,2.5l-53.1,58.3C821.3,630.4,819,630.5,817.4,629.1z
	 M883.9,577.8l-53.1,58.3c-1.4,1.6-3.8,1.6-5.3,0.3c-0.7-0.6-1.1-1.4-1.1-2.3c1.1,0.1,2.1-0.3,2.9-1.2l53.1-58.3
	c0.8-0.9,1.1-2,0.9-3c0.9,0,1.7,0.3,2.4,0.9C885.2,573.9,885.3,576.2,883.9,577.8z M900.3,543.6c-0.4,0-0.8,0-1.2-0.1
	c-3.7-0.5-6.8-3-8-6.4c-0.4-1.1-0.6-2.2-0.6-3.4c0-5.4,4.4-9.9,9.9-9.9c0.9,0,1.8,0.1,2.6,0.4c3.5,1,6.3,3.8,7,7.4
	c0.2,0.7,0.2,1.4,0.2,2.1C910.2,539.2,905.8,543.6,900.3,543.6z M948.8,574.7l-7.4,7.4c-0.8,0.9-2.2,0.9-3.1,0l-22.5-22.5
	c-0.8-0.8-0.8-2.1-0.1-3c0.1,0.3,0.2,0.5,0.5,0.7l22.1,22.1c0.8,0.8,2,0.8,2.7,0l5.1-5.1c0.8-0.8,0.8-2,0-2.7l-22.1-22.1
	c-0.2-0.2-0.5-0.4-0.7-0.5c0.9-0.8,2.2-0.7,3,0.1l22.5,22.5C949.7,572.4,949.7,573.8,948.8,574.7z"/>
</svg>
